
<svg viewBox="0 0 224 68" fill="none" xmlns="http://www.w3.org/2000/svg">
    <path
        d="M29.548 24.0748H26.5067V34.6496C25.4092 33.9985 23.8281 33.4405 21.7634 32.9754C19.8289 32.529 18.1548 32.3058 16.7411 32.3058C13.337 32.3058 10.4818 32.9103 8.17521 34.1194C6.87313 34.8077 6.22209 35.7098 6.22209 36.8259C6.22209 38.314 7.00334 39.058 8.56584 39.058C9.5145 39.058 10.7515 38.779 12.2768 38.221C13.2626 37.8676 14.5275 37.4211 16.0714 36.8817C16.7225 36.6585 17.8757 36.5469 19.5312 36.5469C22.7492 36.5469 25.1488 37.542 26.7299 39.5324C27.4926 40.481 27.8739 41.5971 27.8739 42.8806C27.8739 45.8382 26.0138 48.1633 22.2935 49.856C20.7496 50.5629 19.2801 50.9628 17.885 51.0558C19.2243 52.3951 20.4985 53.0647 21.7076 53.0647C22.0982 53.0647 22.5167 53.0089 22.9632 52.8973L25.7812 57.5011C25.2046 58.0033 24.0234 58.2545 22.2377 58.2545C20.7868 58.2545 19.5591 57.7615 18.5547 56.7757C18.0152 56.2362 17.2526 55.1109 16.2667 53.3996C15.4297 51.9301 14.7321 51.186 14.1741 51.1674C10.7329 51.0744 8.08221 50.4513 6.22209 49.298C5.05021 48.5725 4.46428 47.5774 4.46428 46.3125C4.46428 44.75 5.39434 43.9687 7.25446 43.9687C7.9427 43.9687 9.37499 44.5082 11.5513 45.5871C13.7463 46.6473 15.5506 47.1775 16.9643 47.1775C19.7917 47.1775 22.4423 46.5078 24.9163 45.1685C26.1254 44.5175 26.7299 43.7176 26.7299 42.769C26.7299 41.3553 25.6138 40.6484 23.3817 40.6484C22.6934 40.6484 20.4706 41.1507 16.7132 42.1551C14.4996 42.7504 13.1417 43.048 12.6395 43.048C9.68191 43.048 7.24516 41.6529 5.32923 38.8627C4.39917 37.5234 3.93414 36.0818 3.93414 34.5379C3.91554 31.3943 6.06398 29.2738 10.3795 28.1763C12.1466 27.7299 13.8114 27.5067 15.3739 27.5067C17.1596 27.5067 19.6894 27.9438 22.9632 28.8181V24.0748H0.753339V20.7266H29.548V24.0748ZM59.9051 24.0748H37.3884V32.4732C39.4159 30.2597 41.2946 28.8367 43.0245 28.2042C43.9918 27.8508 45.08 27.6741 46.2891 27.6741C50.8277 27.6741 54.2225 29.9062 56.4732 34.3705C57.4591 36.3237 57.952 38.2489 57.952 40.1462C57.952 43.606 56.529 46.731 53.683 49.5212C52.7344 50.4513 52.0275 51.093 51.5625 51.4464L46.9866 48.7121C48.1399 47.503 49.4513 46.0149 50.9208 44.2478C52.5763 42.2574 53.4133 39.7463 53.4319 36.7143C53.4505 34.91 53.0413 33.4033 52.2042 32.1942C51.2556 30.7805 49.9163 30.0923 48.1864 30.1295C46.5867 30.1667 44.8754 30.7712 43.0524 31.9431C41.4155 32.9847 40.0577 34.231 38.9788 35.6819C37.8069 37.2444 37.221 38.7511 37.221 40.202V51.279L32.0033 48.4888V24.0748H28.9341V20.7266H32.0033C32.0033 15.2578 30.5804 10.5889 27.7344 6.71986C26.0231 4.39471 24.442 2.75781 22.9911 1.80915L28.6272 1.75335C31.7522 3.46466 34.2355 7.15699 36.077 12.8304C36.9513 15.5275 37.3884 18.1596 37.3884 20.7266H59.9051V24.0748ZM69.0569 17.7969C68.9825 17.8713 68.7686 17.9085 68.4152 17.9085C68.1176 17.9085 67.8571 17.8713 67.6339 17.7969L65.8203 14.0859C65.0763 12.9141 64.0625 12.1235 62.779 11.7143C61.5141 11.2865 60.7329 10.8214 60.4353 10.3192C60.1562 9.46354 59.6168 8.15216 58.817 6.38504V5.7433H59.9051C61.3374 6.18973 62.5 6.60826 63.3929 6.99888C64.8623 7.64992 65.8482 8.40327 66.3504 9.25893C66.6295 9.72396 67.0573 10.9144 67.6339 12.8304C68.1734 14.6347 68.6291 15.8903 69.0011 16.5971C69.0383 16.9319 69.0569 17.3318 69.0569 17.7969ZM70.7031 24.0748H59.3471V20.7266H70.7031V24.0748ZM67.5223 51.6417L62.8348 49.0469V27.5067H67.5223V51.6417ZM82.8404 24.0748H79.8828V20.7266H82.8404V24.0748ZM73.298 24.0748H70.1172V20.7266H73.298V24.0748ZM78.9621 17.3504V51.6975C78.776 51.6417 78.5342 51.5394 78.2366 51.3906L76.7857 50.6373C75.1302 49.7816 74.256 49.3538 74.1629 49.3538V17.4062C74.1629 15.4531 73.7816 13.3791 73.019 11.1841C71.9587 8.11495 70.3125 5.32477 68.0804 2.81361L66.3225 0.832586H72.2656C75.3534 3.92038 77.381 7.70573 78.3482 12.1886C78.7574 14.0859 78.9621 15.8065 78.9621 17.3504ZM114.062 24.0748H82.0591V20.7266H114.062V24.0748ZM111.83 39.5045C111.83 41.5506 111.217 43.4851 109.989 45.308C108.854 47.0007 107.357 48.3865 105.497 49.4654C103.637 50.5257 101.916 51.0558 100.335 51.0558C98.7909 51.0558 96.8657 50.1908 94.5591 48.4609C93.4431 47.6239 91.8062 46.1823 89.6484 44.1362V67.7969L85.1841 65.4531V28.5391H89.5368V35.3471L91.2388 33.5614C95.1637 29.4505 98.3445 27.3951 100.781 27.3951C103.423 27.3951 105.943 28.7623 108.343 31.4967C110.668 34.1566 111.83 36.8259 111.83 39.5045ZM109.068 36.2679C109.068 34.8542 108.333 33.4963 106.864 32.1942C106.138 31.5432 105.218 31.2176 104.102 31.2176C101.907 31.2176 99.1815 32.5476 95.9263 35.2076C92.5781 37.942 90.904 40.3694 90.904 42.49C90.904 43.7362 92.0666 44.8337 94.3917 45.7824C95.4334 46.2102 96.4472 46.4241 97.433 46.4241C100.67 46.4241 103.478 45.1778 105.859 42.6853C107.999 40.4531 109.068 38.314 109.068 36.2679ZM141.881 24.0748H138.839V34.6496C137.742 33.9985 136.161 33.4405 134.096 32.9754C132.161 32.529 130.487 32.3058 129.074 32.3058C125.67 32.3058 122.814 32.9103 120.508 34.1194C119.206 34.8077 118.555 35.7098 118.555 36.8259C118.555 38.314 119.336 39.058 120.898 39.058C121.847 39.058 123.084 38.779 124.609 38.221C125.595 37.8676 126.86 37.4211 128.404 36.8817C129.055 36.6585 130.208 36.5469 131.864 36.5469C135.082 36.5469 137.481 37.542 139.062 39.5324C139.825 40.481 140.206 41.5971 140.206 42.8806C140.206 45.8382 138.346 48.1633 134.626 49.856C133.082 50.5629 131.613 50.9628 130.218 51.0558C131.557 52.3951 132.831 53.0647 134.04 53.0647C134.431 53.0647 134.849 53.0089 135.296 52.8973L138.114 57.5011C137.537 58.0033 136.356 58.2545 134.57 58.2545C133.119 58.2545 131.892 57.7615 130.887 56.7757C130.348 56.2362 129.585 55.1109 128.599 53.3996C127.762 51.9301 127.065 51.186 126.507 51.1674C123.065 51.0744 120.415 50.4513 118.555 49.298C117.383 48.5725 116.797 47.5774 116.797 46.3125C116.797 44.75 117.727 43.9687 119.587 43.9687C120.275 43.9687 121.708 44.5082 123.884 45.5871C126.079 46.6473 127.883 47.1775 129.297 47.1775C132.124 47.1775 134.775 46.5078 137.249 45.1685C138.458 44.5175 139.062 43.7176 139.062 42.769C139.062 41.3553 137.946 40.6484 135.714 40.6484C135.026 40.6484 132.803 41.1507 129.046 42.1551C126.832 42.7504 125.474 43.048 124.972 43.048C122.015 43.048 119.578 41.6529 117.662 38.8627C116.732 37.5234 116.267 36.0818 116.267 34.5379C116.248 31.3943 118.397 29.2738 122.712 28.1763C124.479 27.7299 126.144 27.5067 127.706 27.5067C129.492 27.5067 132.022 27.9438 135.296 28.8181V24.0748H113.086V20.7266H141.881V24.0748ZM168.862 24.0748H150.279V28.5391C150.353 28.5391 150.428 28.5763 150.502 28.6507C150.577 28.7251 150.642 28.7623 150.698 28.7623C150.549 28.7623 150.465 28.753 150.446 28.7344C150.446 28.6414 151.832 28.3437 154.604 27.8415C155.627 27.6555 156.641 27.5625 157.645 27.5625C161.83 27.5625 164.518 28.7344 165.709 31.0781C166.509 32.6406 166.908 35.7935 166.908 40.5368V51.279C166.518 51.1302 165.039 50.5257 162.472 49.4654C162.472 48.8702 162.351 48.4888 162.109 48.3214C161.124 48.8981 160.314 49.3352 159.682 49.6328C157.673 50.5815 155.339 51.0558 152.679 51.0558C149.014 51.0558 146.187 49.9025 144.196 47.596C143.229 46.4799 142.746 45.2336 142.746 43.8571C142.746 42.3132 143.508 40.7786 145.033 39.2533C147.991 36.2958 151.665 34.817 156.055 34.817C158.715 34.817 160.854 35.4308 162.472 36.6585V34.0915C161.654 33.0499 160.854 32.3523 160.073 31.9989C159.31 31.6455 158.259 31.4874 156.92 31.5246C153.925 31.5804 151.181 32.1291 148.689 33.1708C147.573 33.6358 146.484 34.0543 145.424 34.4263V32.3616C145.666 32.157 146.019 31.8501 146.484 31.4408C146.559 31.3478 146.605 31.292 146.624 31.2734V24.0748H140.904V20.7266H168.862V24.0748ZM162.472 41.7366C162.472 40.9182 161.496 40.1834 159.542 39.5324C157.924 38.9929 156.576 38.7232 155.497 38.7232C151.572 38.7232 148.428 40.1369 146.066 42.9643C145.117 44.099 144.643 45.029 144.643 45.7545C145.033 47.1124 146.568 47.7913 149.247 47.7913C152.706 47.7913 155.869 46.9263 158.733 45.1964C161.226 43.6897 162.472 42.5365 162.472 41.7366ZM197.796 55.5201C197.796 58.9799 196.122 60.7098 192.773 60.7098C191.285 60.7098 189.128 60.003 186.3 58.5893C183.175 57.0268 180.552 56.2455 178.432 56.2455C173.875 56.2455 169.578 58.0406 165.541 61.6306C163.607 63.3605 162.091 65.3973 160.993 67.7411C160.919 67.4435 160.882 66.9691 160.882 66.3181C160.882 64.0859 161.551 61.8631 162.891 59.6496C164.118 57.6034 165.709 55.8921 167.662 54.5156C169.857 52.9717 172.359 52.1998 175.167 52.1998C177.102 52.1998 178.785 52.5253 180.218 53.1763C180.98 53.5298 182.45 54.4412 184.626 55.9107C186.486 57.1756 187.909 57.808 188.895 57.808C191.35 57.808 193.304 56.7943 194.754 54.7667C195.387 53.8925 195.703 53.0368 195.703 52.1998C195.703 50.7303 195.257 49.5026 194.364 48.5167C193.471 47.5123 192.299 47.01 190.848 47.01C189.509 47.01 187.305 47.689 184.235 49.0469C181.166 50.3862 178.962 51.0558 177.623 51.0558C176.637 51.0558 175.446 50.5629 174.051 49.577C171.15 47.5123 169.699 45.5871 169.699 43.8013C169.699 42.8155 170.247 41.9133 171.345 41.0949C172.331 40.3322 173.345 39.9044 174.386 39.8114L174.442 39.5045L173.075 37.5792C172.312 36.5004 171.931 35.3378 171.931 34.0915C171.931 29.8132 175.428 27.6741 182.422 27.6741C182.626 27.6369 182.766 27.4695 182.84 27.1719V24.0748H168.387V20.7266H197.07V24.0748H187.165V28.7623C187.165 29.6365 187.416 30.176 187.919 30.3806C188.235 30.3806 188.635 30.0923 189.118 29.5156L190.179 28.2321C190.458 27.9531 190.96 27.7671 191.685 27.6741C192.857 27.6741 193.973 28.3437 195.033 29.683C195.517 30.2969 195.833 30.9107 195.982 31.5246L193.052 34.8728C193.015 34.0171 192.839 33.2359 192.522 32.529C192.095 31.5804 191.536 31.106 190.848 31.106C190.588 31.106 190.281 31.2269 189.927 31.4687C189.574 31.7106 189.397 31.9524 189.397 32.1942C189.397 32.4732 189.518 32.808 189.76 33.1987C190.039 33.6637 190.197 33.952 190.234 34.0636C190.365 34.4914 190.43 35.0309 190.43 35.6819C190.43 38.1931 189.407 39.8951 187.36 40.7879C186.003 41.3832 183.863 41.6808 180.943 41.6808C177.223 41.6808 174.684 42.5086 173.326 44.1641C172.786 44.8151 172.526 45.3452 172.545 45.7545C172.563 46.3125 172.842 46.8054 173.382 47.2333C173.921 47.6425 174.479 47.8471 175.056 47.8471C176.116 47.8471 178.153 47.1124 181.166 45.6429C184.719 43.9129 187.584 43.0294 189.76 42.9922C191.75 42.955 193.424 43.8385 194.782 45.6429C195.88 47.0751 196.67 48.8981 197.154 51.1116C197.582 53.0647 197.796 54.5342 197.796 55.5201ZM186.942 33.115C186.942 30.8642 185.742 29.7388 183.343 29.7388C181.408 29.7388 179.576 30.4178 177.846 31.7757C175.986 33.2266 175.056 34.8914 175.056 36.7701C175.056 37.7932 175.446 38.6674 176.228 39.3929C177.028 40.1183 177.939 40.481 178.962 40.481C180.022 40.4996 181.222 40.1183 182.561 39.3371C183.752 38.6488 184.738 37.849 185.519 36.9375C186.468 35.8214 186.942 34.5472 186.942 33.115ZM223.884 24.0748H205.301V28.5391C205.376 28.5391 205.45 28.5763 205.525 28.6507C205.599 28.7251 205.664 28.7623 205.72 28.7623C205.571 28.7623 205.487 28.753 205.469 28.7344C205.469 28.6414 206.855 28.3437 209.626 27.8415C210.649 27.6555 211.663 27.5625 212.667 27.5625C216.853 27.5625 219.541 28.7344 220.731 31.0781C221.531 32.6406 221.931 35.7935 221.931 40.5368V51.279C221.54 51.1302 220.061 50.5257 217.494 49.4654C217.494 48.8702 217.374 48.4888 217.132 48.3214C216.146 48.8981 215.337 49.3352 214.704 49.6328C212.695 50.5815 210.361 51.0558 207.701 51.0558C204.036 51.0558 201.209 49.9025 199.219 47.596C198.251 46.4799 197.768 45.2336 197.768 43.8571C197.768 42.3132 198.531 40.7786 200.056 39.2533C203.013 36.2958 206.687 34.817 211.077 34.817C213.737 34.817 215.876 35.4308 217.494 36.6585V34.0915C216.676 33.0499 215.876 32.3523 215.095 31.9989C214.332 31.6455 213.281 31.4874 211.942 31.5246C208.947 31.5804 206.203 32.1291 203.711 33.1708C202.595 33.6358 201.507 34.0543 200.446 34.4263V32.3616C200.688 32.157 201.042 31.8501 201.507 31.4408C201.581 31.3478 201.628 31.292 201.646 31.2734V24.0748H195.926V20.7266H223.884V24.0748ZM217.494 41.7366C217.494 40.9182 216.518 40.1834 214.565 39.5324C212.946 38.9929 211.598 38.7232 210.519 38.7232C206.594 38.7232 203.451 40.1369 201.088 42.9643C200.14 44.099 199.665 45.029 199.665 45.7545C200.056 47.1124 201.59 47.7913 204.269 47.7913C207.729 47.7913 210.891 46.9263 213.756 45.1964C216.248 43.6897 217.494 42.5365 217.494 41.7366Z" fill="#2B3B8C"/></svg>